<svg width="133" height="52" viewBox="0 0 133 52" fill="none" xmlns="http://www.w3.org/2000/svg">
<path d="M0.930929 29.878C0.994043 32.8759 3.02946 36.4102 9.27773 36.4102C14.4688 36.4102 17.8139 33.8857 17.8139 29.6571C17.8139 25.8071 15.2104 24.2766 12.0232 23.5824L8.67815 22.8092C6.7374 22.3832 5.72758 21.4996 5.72758 20.2058C5.72758 18.4544 7.19498 17.3656 9.48285 17.3656C12.0705 17.3656 13.3486 18.8015 13.4906 20.4109H17.4983C17.4352 16.5452 14.1217 14.0206 9.49863 14.0206C5.06489 14.0206 1.4674 16.34 1.4674 20.5371C1.4674 24.1504 3.97617 25.8229 6.92674 26.4856L10.256 27.2587C12.4808 27.7636 13.5695 28.5368 13.5695 30.0515C13.5695 31.8345 12.1336 33.0336 9.51441 33.0336C6.69007 33.0336 5.19111 31.5505 5.04911 29.878H0.930929ZM22.721 19.2591H20.2753V22.4779H22.6421V31.2665C22.6421 34.6904 24.0148 36.0947 28.1803 36.0947C29.0166 36.0947 29.7582 36.0158 30.0737 35.9527V32.8759C29.8844 32.8916 29.5373 32.9074 29.1901 32.9074C27.4703 32.9074 26.7603 32.4025 26.7603 30.73V22.4779H30.0106V19.2591H26.7603V15.2513H22.721V19.2591ZM33.6239 36H37.8683V26.454C37.8683 24.2135 38.815 22.5725 41.5447 22.5725C42.1916 22.5725 42.8543 22.6199 43.1856 22.7145V19.117C42.8543 19.0539 42.4283 19.0066 41.8603 19.0066C39.5724 19.0066 38.3259 20.4898 37.9472 21.5627H37.7736V19.2591H33.6239V36ZM52.6212 36.2998C57.1022 36.2998 59.2797 33.6332 59.6741 30.9509H55.8242C55.4771 32.3078 54.3095 33.1283 52.6527 33.1283C50.5384 33.1283 49.1026 31.5189 49.1026 28.9786V28.521H59.8319V26.8801C59.8319 22.0676 57.0076 18.9593 52.4476 18.9593C48.0454 18.9593 45.0317 21.8625 45.0317 26.7696V28.3001C45.0317 33.4281 48.0296 36.2998 52.6212 36.2998ZM49.1026 25.886V25.8545C49.1026 23.7086 50.4437 22.0518 52.4792 22.0518C54.4988 22.0518 55.8084 23.6928 55.8084 25.8545V25.886H49.1026ZM72.4389 33.9646H72.6125V36H76.5413V24.6868C76.5413 20.7896 73.6065 18.9908 69.7566 18.9908C64.9284 18.9908 63.1296 21.5785 63.0034 24.3713H66.8849C66.9953 23.0301 67.9736 22.1307 69.6777 22.1307C71.4291 22.1307 72.4389 23.0617 72.4389 24.7342V26.2489H68.3523C64.4708 26.2489 62.388 28.1739 62.388 31.1718C62.388 34.3275 64.6286 36.2525 67.8947 36.2525C70.3562 36.2525 71.7762 35.1953 72.4389 33.9646ZM69.2359 33.223C67.8474 33.223 66.522 32.4656 66.522 30.9036C66.522 29.6255 67.4214 28.7419 69.2517 28.7419H72.4389V30.5091C72.4389 32.1343 71.0188 33.223 69.2359 33.223ZM80.5175 36H84.6514V25.8387C84.6514 23.5192 85.9768 22.4621 87.602 22.4621C89.2903 22.4621 90.5368 23.4561 90.5368 25.8702V36H94.5445V25.8702C94.5445 23.7244 95.6648 22.4621 97.5109 22.4621C99.2781 22.4621 100.43 23.5824 100.43 25.7124V36H104.58V24.5606C104.58 21.2156 102.576 18.9908 99.1203 18.9908C96.3117 18.9908 94.5761 20.4424 94.0238 21.8625H93.8503C93.2823 20.1426 91.736 18.9908 89.1641 18.9908C86.6553 18.9908 85.2352 20.4424 84.7777 21.6574H84.5568V19.2591H80.5175V36ZM126.953 36H131.624L126.196 27.6216L131.671 19.2591H127.08L123.766 24.9551H123.656L120.342 19.2591H115.53L120.879 27.6216L115.577 36H120.027L123.419 30.304H123.53L126.953 36Z" fill="white"/>
<path d="M108.508 15.1093C108.508 16.4032 109.581 17.2867 110.859 17.2867C112.153 17.2867 113.21 16.4032 113.21 15.1093C113.21 13.8155 112.153 12.9161 110.859 12.9161C109.581 12.9161 108.508 13.8155 108.508 15.1093ZM108.792 36H112.942V19.2591H108.792V36Z" fill="#C5CAF6"/>
<path d="M85 48.5C93.3333 50 113.8 51.2 129 44" stroke="url(#paint0_linear_1_327)" stroke-width="3" stroke-linecap="round" stroke-linejoin="round"/>
<circle cx="110.9" cy="14.4714" r="3.9" fill="#232533"/>
<g filter="url(#filter0_d_1_327)">
<circle cx="110.9" cy="12.3572" r="3.9" fill="url(#paint1_linear_1_327)"/>
<circle cx="110.9" cy="12.3572" r="3.38" stroke="url(#paint2_linear_1_327)" stroke-width="1.04"/>
</g>
<defs>
<filter id="filter0_d_1_327" x="99.2" y="0.657153" width="23.4" height="23.4" filterUnits="userSpaceOnUse" color-interpolation-filters="sRGB">
<feFlood flood-opacity="0" result="BackgroundImageFix"/>
<feColorMatrix in="SourceAlpha" type="matrix" values="0 0 0 0 0 0 0 0 0 0 0 0 0 0 0 0 0 0 127 0" result="hardAlpha"/>
<feOffset/>
<feGaussianBlur stdDeviation="3.9"/>
<feColorMatrix type="matrix" values="0 0 0 0 0.992157 0 0 0 0 0.678431 0 0 0 0 0 0 0 0 0.62 0"/>
<feBlend mode="normal" in2="BackgroundImageFix" result="effect1_dropShadow_1_327"/>
<feBlend mode="normal" in="SourceGraphic" in2="effect1_dropShadow_1_327" result="shape"/>
</filter>
<linearGradient id="paint0_linear_1_327" x1="85.9167" y1="46.5627" x2="128.771" y2="49.8242" gradientUnits="userSpaceOnUse">
<stop stop-color="#0088FF"/>
<stop offset="1" stop-color="#0F9AFF"/>
</linearGradient>
<linearGradient id="paint1_linear_1_327" x1="110.9" y1="8.13215" x2="110.9" y2="16.2572" gradientUnits="userSpaceOnUse">
<stop stop-color="#FDD231"/>
<stop offset="1" stop-color="#F9C200"/>
</linearGradient>
<linearGradient id="paint2_linear_1_327" x1="110.9" y1="8.13215" x2="110.9" y2="16.2572" gradientUnits="userSpaceOnUse">
<stop stop-color="#FDD231"/>
<stop offset="1" stop-color="#F9C200"/>
</linearGradient>
</defs>
</svg>
