<svg width="34" height="31" viewBox="0 0 34 31" fill="none" xmlns="http://www.w3.org/2000/svg">
<path fill-rule="evenodd" clip-rule="evenodd" d="M7.16191 20.3243C6.46432 20.3243 5.89758 19.7576 5.89758 19.06C5.89758 18.3644 6.46432 17.7977 7.16191 17.7977C7.85951 17.7977 8.42624 18.3644 8.42624 19.06C8.42624 19.7576 7.85951 20.3243 7.16191 20.3243ZM12.0771 20.3243C11.3795 20.3243 10.8128 19.7576 10.8128 19.06C10.8128 18.3645 11.3795 17.7977 12.0771 17.7977C12.7747 17.7977 13.3415 18.3645 13.3415 19.06C13.3415 19.7576 12.7747 20.3243 12.0771 20.3243ZM15.7279 19.06C15.7279 19.7576 16.2946 20.3243 16.9922 20.3243C17.6898 20.3243 18.2565 19.7576 18.2565 19.06C18.2565 18.3645 17.6898 17.7977 16.9922 17.7977C16.2946 17.7977 15.7279 18.3645 15.7279 19.06Z" fill="#C5CAF6"/>
<path fill-rule="evenodd" clip-rule="evenodd" d="M11.8411 8C5.55499 8 1 13.135 1 18.8357C1 20.6561 1.53015 22.5296 2.46063 24.2416C2.63374 24.5244 2.65537 24.8809 2.53636 25.2179L1.81146 27.6451C1.64917 28.2302 2.14686 28.6626 2.69865 28.4892L4.88418 27.8402C5.47925 27.6451 5.94449 27.8933 6.49628 28.2302C8.07592 29.161 10.0451 29.6389 11.8194 29.6389C17.1859 29.6389 22.6389 25.4888 22.6389 18.8032C22.6389 13.0375 17.9865 8 11.8411 8Z" stroke="#C5CAF6" stroke-width="1.62292" stroke-linecap="round" stroke-linejoin="round"/>
<circle cx="23.6389" cy="9" r="7" fill="#13141C"/>
<g filter="url(#filter0_d_1_207)">
<circle cx="23.6389" cy="9" r="4" fill="url(#paint0_linear_1_207)"/>
</g>
<defs>
<filter id="filter0_d_1_207" x="13.6389" y="0" width="20" height="20" filterUnits="userSpaceOnUse" color-interpolation-filters="sRGB">
<feFlood flood-opacity="0" result="BackgroundImageFix"/>
<feColorMatrix in="SourceAlpha" type="matrix" values="0 0 0 0 0 0 0 0 0 0 0 0 0 0 0 0 0 0 127 0" result="hardAlpha"/>
<feOffset dy="1"/>
<feGaussianBlur stdDeviation="3"/>
<feColorMatrix type="matrix" values="0 0 0 0 0.0583334 0 0 0 0 0.602305 0 0 0 0 1 0 0 0 0.65 0"/>
<feBlend mode="normal" in2="BackgroundImageFix" result="effect1_dropShadow_1_207"/>
<feBlend mode="normal" in="SourceGraphic" in2="effect1_dropShadow_1_207" result="shape"/>
</filter>
<linearGradient id="paint0_linear_1_207" x1="19.8056" y1="8.63636" x2="27.6417" y2="8.71278" gradientUnits="userSpaceOnUse">
<stop stop-color="#0088FF"/>
<stop offset="1" stop-color="#0F9AFF"/>
</linearGradient>
</defs>
</svg>
