<svg width="22" height="22" viewBox="0 0 22 22" fill="none" xmlns="http://www.w3.org/2000/svg">
<g filter="url(#filter0_d_1_361)">
<path fill-rule="evenodd" clip-rule="evenodd" d="M8.2 7C8.2 7.91438 7.61561 8.69226 6.79994 8.98053L6.8 13.3C6.8 13.6866 6.4866 14 6.1 14C5.7134 14 5.4 13.6866 5.4 13.3L5.39937 8.98028C4.58406 8.69182 4 7.91412 4 7C4 6.08588 4.58406 5.30818 5.39937 5.01972L5.4 0.7C5.4 0.313401 5.7134 0 6.1 0C6.4866 0 6.8 0.313401 6.8 0.7L6.79994 5.01947C7.61561 5.30774 8.2 6.08562 8.2 7ZM6.79998 7.00001C6.79998 6.61341 6.48658 6.30001 6.09998 6.30001C5.71338 6.30001 5.39998 6.61341 5.39998 7.00001C5.39998 7.38661 5.71338 7.70001 6.09998 7.70001C6.48658 7.70001 6.79998 7.38661 6.79998 7.00001ZM13.1 11.9C13.1 13.0598 12.1598 14 11 14C9.84018 14 8.89998 13.0598 8.89998 11.9C8.89998 10.9859 9.48404 10.2082 10.2993 9.91972L10.3 0.7C10.3 0.313401 10.6134 0 11 0C11.3866 0 11.7 0.313401 11.7 0.7L11.6999 9.91947C12.5156 10.2077 13.1 10.9856 13.1 11.9ZM11.7 11.9C11.7 11.5134 11.3866 11.2 11 11.2C10.6134 11.2 10.3 11.5134 10.3 11.9C10.3 12.2866 10.6134 12.6 11 12.6C11.3866 12.6 11.7 12.2866 11.7 11.9ZM18 2.1C18 3.01826 17.4106 3.79886 16.5895 4.08417C16.5967 4.12159 16.6 4.16041 16.6 4.2V13.3C16.6 13.6866 16.2866 14 15.9 14C15.5134 14 15.2 13.6866 15.2 13.3V4.2C15.2 4.16041 15.2032 4.12159 15.2096 4.0838C14.3893 3.79886 13.8 3.01826 13.8 2.1C13.8 0.940202 14.7402 0 15.9 0C17.0598 0 18 0.940202 18 2.1ZM16.6 2.10001C16.6 1.71341 16.2866 1.40001 15.9 1.40001C15.5134 1.40001 15.2 1.71341 15.2 2.10001C15.2 2.4866 15.5134 2.80001 15.9 2.80001C16.2866 2.80001 16.6 2.4866 16.6 2.10001Z" fill="url(#paint0_linear_1_361)"/>
</g>
<defs>
<filter id="filter0_d_1_361" x="0" y="0" width="22" height="22" filterUnits="userSpaceOnUse" color-interpolation-filters="sRGB">
<feFlood flood-opacity="0" result="BackgroundImageFix"/>
<feColorMatrix in="SourceAlpha" type="matrix" values="0 0 0 0 0 0 0 0 0 0 0 0 0 0 0 0 0 0 127 0" result="hardAlpha"/>
<feOffset dy="4"/>
<feGaussianBlur stdDeviation="2"/>
<feComposite in2="hardAlpha" operator="out"/>
<feColorMatrix type="matrix" values="0 0 0 0 0 0 0 0 0 0 0 0 0 0 0 0 0 0 0.25 0"/>
<feBlend mode="normal" in2="BackgroundImageFix" result="effect1_dropShadow_1_361"/>
<feBlend mode="normal" in="SourceGraphic" in2="effect1_dropShadow_1_361" result="shape"/>
</filter>
<linearGradient id="paint0_linear_1_361" x1="4.29167" y1="6.36364" x2="18.0049" y2="6.49737" gradientUnits="userSpaceOnUse">
<stop stop-color="#0088FF"/>
<stop offset="1" stop-color="#0F9AFF"/>
</linearGradient>
</defs>
</svg>
