<svg width="4" height="16" viewBox="0 0 4 16" fill="none" xmlns="http://www.w3.org/2000/svg">
<path opacity="0.3" fill-rule="evenodd" clip-rule="evenodd" d="M2.00005 12.4444C2.98192 12.4444 3.77789 13.2404 3.77789 14.2222C3.77789 15.2041 2.98192 16 2.00005 16C1.01818 16 0.222222 15.2041 0.222222 14.2222C0.222222 13.2404 1.01818 12.4444 2.00005 12.4444ZM2.00005 6.22222C2.98192 6.22222 3.77789 7.01816 3.77789 7.99999C3.77789 8.98183 2.98192 9.77776 2.00005 9.77776C1.01818 9.77776 0.222222 8.98183 0.222222 7.99999C0.222222 7.01816 1.01818 6.22222 2.00005 6.22222ZM1.99995 0C2.98179 0 3.77772 0.795938 3.77772 1.77778C3.77772 2.75962 2.98179 3.55556 1.99995 3.55556C1.01811 3.55556 0.222168 2.75962 0.222168 1.77778C0.222168 0.795938 1.01811 0 1.99995 0Z" fill="#C5CAF6"/>
</svg>
