<svg width="14" height="14" viewBox="0 0 14 14" fill="none" xmlns="http://www.w3.org/2000/svg">
<g opacity="0.7">
<path fill-rule="evenodd" clip-rule="evenodd" d="M6.72808 0C3.01226 0 0 2.94573 0 6.57948C0 10.2132 3.01226 13.159 6.72808 13.159C8.31732 13.159 9.77787 12.6201 10.9291 11.7191L13.1159 13.852L13.1741 13.901C13.3772 14.048 13.665 14.0312 13.8487 13.8511C14.0508 13.653 14.0504 13.3321 13.8478 13.1345L11.6866 11.0266C12.7855 9.85556 13.4562 8.29412 13.4562 6.57948C13.4562 2.94573 10.4439 0 6.72808 0ZM6.72806 1.01343C9.87154 1.01343 12.4198 3.50544 12.4198 6.57949C12.4198 9.65355 9.87154 12.1456 6.72806 12.1456C3.58458 12.1456 1.03629 9.65355 1.03629 6.57949C1.03629 3.50544 3.58458 1.01343 6.72806 1.01343Z" fill="#C5CAF6"/>
</g>
</svg>
